<?xml version="1.0" encoding="UTF-8" standalone="no"?>
<svg
   xmlns:dc="http://purl.org/dc/elements/1.1/"
   xmlns:cc="http://creativecommons.org/ns#"
   xmlns:rdf="http://www.w3.org/1999/02/22-rdf-syntax-ns#"
   xmlns:svg="http://www.w3.org/2000/svg"
   xmlns="http://www.w3.org/2000/svg"
   xmlns:sodipodi="http://sodipodi.sourceforge.net/DTD/sodipodi-0.dtd"
   xmlns:inkscape="http://www.inkscape.org/namespaces/inkscape"
   width="21mm"
   height="21mm"
   viewBox="0 0 21 21"
   version="1.1"
   id="svg8"
   inkscape:version="1.0.2-2 (e86c870879, 2021-01-15)"
   sodipodi:docname="checkbox2.svg">
  <defs
     id="defs2" />
  <sodipodi:namedview
     id="base"
     pagecolor="#ffffff"
     bordercolor="#666666"
     borderopacity="1.0"
     inkscape:pageopacity="0.0"
     inkscape:pageshadow="2"
     inkscape:zoom="3.959798"
     inkscape:cx="27.512704"
     inkscape:cy="36.505906"
     inkscape:document-units="mm"
     inkscape:current-layer="layer1"
     inkscape:document-rotation="0"
     showgrid="false"
     inkscape:window-width="1465"
     inkscape:window-height="1040"
     inkscape:window-x="1946"
     inkscape:window-y="0"
     inkscape:window-maximized="0" />
  <metadata
     id="metadata5">
    <rdf:RDF>
      <cc:Work
         rdf:about="">
        <dc:format>image/svg+xml</dc:format>
        <dc:type
           rdf:resource="http://purl.org/dc/dcmitype/StillImage" />
        <dc:title />
      </cc:Work>
    </rdf:RDF>
  </metadata>
  <g
     inkscape:label="Warstwa 1"
     inkscape:groupmode="layer"
     id="layer1">
    <path
       style="fill:#ff0000;fill-opacity:1;stroke-width:12.965"
       id="path865"
       d="M 4.7778532,15.451489 C 4.727394,13.532163 4.5757385,11.618158 4.4351709,9.7038339 4.3005189,7.9909047 4.1571267,6.2787595 4.0467621,4.5640296 4.0192626,4.1367709 3.9959094,3.7092559 3.970561,3.2818644 3.9151933,2.3483276 3.9631212,2.7296432 3.874031,2.1410458 3.570079,2.3730199 3.1652223,2.5129766 2.962175,2.8369683 2.8275425,3.0517944 2.959795,3.3440264 2.9612225,3.5975496 c 0.0022,0.3857696 0.00391,0.7715723 0.01184,1.1572666 0.018412,0.8952603 0.064849,2.2066207 0.1113189,3.0857189 0.029786,0.5634787 0.070596,1.1263204 0.1058942,1.6894808 0.108332,1.4268051 0.2072997,2.8542381 0.2994747,4.2821631 0,0 0.6008693,-0.313291 0.6008693,-0.313291 v 0 C 3.9162085,12.097574 3.7545279,10.694513 3.665143,9.2845844 3.6350159,8.7193204 3.5951728,8.1544908 3.5747616,7.5887928 3.5375725,6.5580952 3.5310066,5.4815872 3.5768518,4.4496079 3.5946953,4.0479643 3.6207152,3.6463239 3.6645537,3.2466814 3.6940857,2.9774631 3.9786081,2.6456986 3.7967462,2.4450074 3.6306342,2.2616966 3.311417,2.5411311 3.0687526,2.589193 c 0.053878,0.07699 0.1325866,0.1416017 0.1616336,0.230969 0.1656379,0.5096081 0.2625527,1.5681348 0.3109876,2.0068098 0.1881007,1.703629 0.3296015,3.4123261 0.4149431,5.124293 0.081163,1.9792262 0.1697032,3.9689042 -0.047925,5.9432292 0,0 0.8694468,-0.443005 0.8694468,-0.443005 z" />
    <path
       style="fill:#ff0000;fill-opacity:1;stroke-width:12.965"
       id="path867"
       d="m 1.3195413,3.3013938 c 0.069524,0.00602 0.1388506,0.015129 0.2085733,0.018079 0.7500397,0.031737 1.5095465,-0.00947 2.2574791,-0.050349 C 5.0166161,3.2018401 5.8784256,3.1298411 7.133219,3.0356222 9.1752593,2.8822819 11.212213,2.6708579 13.25026,2.4733715 14.442581,2.3578357 15.635513,2.25109 16.825979,2.1177473 c 0.320259,-0.05614 0.958094,-0.1100449 0.911786,-0.6493061 -0.01891,-0.2202165 -0.442179,0.00194 -0.662969,0.012174 -0.355072,0.016456 -0.709482,0.045001 -1.064199,0.067871 -3.959243,0.2552708 1.419737,-0.089314 -3.096296,0.1994956 -1.746299,0.1106772 -3.4927548,0.218852 -5.2392545,0.3263147 0,0 -0.4491366,0.3312252 -0.4491366,0.3312252 v 0 C 8.9733598,2.2644139 10.721651,2.1324876 12.474186,2.0712144 c 1.126774,-0.043383 1.851812,-0.078272 2.954137,-0.096532 0.323096,-0.00535 0.646336,-0.010374 0.969414,-0.00401 0.181532,0.00358 0.370499,0.088454 0.543651,0.033816 0.325575,-0.102735 0.619647,-0.2941287 0.899768,-0.4892858 0.114311,-0.079639 -0.263144,0.091614 -0.394716,0.1374208 -0.286768,0.05306 -0.572248,0.1136201 -0.860302,0.159181 -0.773418,0.1223309 -2.252145,0.3052952 -2.966835,0.38761 C 11.597879,2.4322328 9.5714319,2.6296786 7.5390459,2.736955 5.9199882,2.8130309 4.2918057,2.9192786 2.6714444,2.8067198 2.3959715,2.7875851 2.3553841,2.7782525 2.1332228,2.7441406 c 0,0 -0.8136815,0.5572532 -0.8136815,0.5572532 z" />
    <path
       style="fill:#ff0000;fill-opacity:1;stroke-width:12.965"
       id="path869"
       d="m 2.3008453,17.455049 c 2.3720826,-0.316172 4.7465608,-0.614354 7.123066,-0.895355 2.8549427,-0.317661 5.7229767,-0.519552 8.5950197,-0.578017 0.138789,0.0026 0.278013,-0.0034 0.416367,0.0079 0.01839,0.0015 0.03108,0.01991 0.04661,0.02986 0.151046,-0.176279 0.600659,-0.349596 0.45314,-0.528837 -0.173045,-0.210256 -0.540741,0.06506 -0.811579,0.09332 -0.52555,0.05485 -2.485631,0.238718 -2.879222,0.275951 -2.422524,0.205414 -4.839123,0.471622 -7.2548449,0.743799 0,0 -0.4415618,0.329108 -0.4415618,0.329108 v 0 c 2.4066312,-0.317572 4.8179967,-0.607218 7.2434067,-0.73842 1.235348,-0.07268 1.544581,-0.09893 2.695308,-0.140578 0.237453,-0.0086 0.487571,0.05855 0.712603,-0.01772 0.387066,-0.131198 0.725018,-0.378473 1.075667,-0.588421 0.0384,-0.02299 -0.08812,0.01568 -0.132176,0.02351 -0.163687,0.01521 -0.327374,0.03041 -0.491061,0.04562 -2.944916,0.248863 -5.895836,0.430041 -8.8345139,0.750453 -2.2392359,0.239624 -4.4788004,0.513601 -6.7303316,0.605854 0,0 -0.7859002,0.581949 -0.7859002,0.581949 z" />
    <path
       style="fill:#ff0000;fill-opacity:1;stroke-width:12.965"
       id="path883"
       d="m 16.132058,4.4969395 c 0.146331,1.0014154 0.310616,2.0002569 0.470676,2.9995968 0.214299,1.4972647 0.415028,2.9973677 0.552535,4.5039267 0.08863,0.971075 0.09817,1.234213 0.157359,2.190397 0.06031,1.041515 0.07835,2.084566 0.07541,3.127572 0,0 0.74989,-0.384674 0.74989,-0.384674 v 0 C 18.078098,15.909998 18.022464,14.885928 17.94416,13.863352 17.760453,11.620446 17.518345,9.3833785 17.26594,7.1472496 17.15047,6.118847 17.016689,5.0859978 17.009363,4.0499305 c 0,0 -0.877305,0.447009 -0.877305,0.447009 z" />
    <path
       style="fill:#ff0000;fill-opacity:1;stroke-width:12.965"
       id="path901"
       d="M 4.6501118,16.832789 C 4.5510283,16.258194 4.4932684,15.677892 4.4287617,15.09871 4.3585108,14.432809 4.3251924,13.763717 4.3055111,13.094634 c -0.00111,-0.06811 -0.00225,-0.136228 -0.00337,-0.204342 0,0 -0.8416125,0.432289 -0.8416125,0.432289 v 0 c 0.0033,0.06743 0.00661,0.134865 0.00991,0.202297 0.040361,0.661899 0.1261512,1.319613 0.1789996,1.980536 0.049888,0.590957 0.1060045,1.183549 0.1194393,1.776386 0,0 0.8812337,-0.449011 0.8812343,-0.449011 z" />
  </g>
</svg>
