<?xml version="1.0" encoding="UTF-8" standalone="no"?>
<!-- Generator: Adobe Illustrator 19.0.0, SVG Export Plug-In . SVG Version: 6.00 Build 0)  -->

<svg
   version="1.1"
   id="Layer_1"
   x="0px"
   y="0px"
   viewBox="0 0 492.004 492.004"
   style="enable-background:new 0 0 492.004 492.004;"
   xml:space="preserve"
   sodipodi:docname="left-arrow.svg"
   inkscape:version="1.1 (c68e22c387, 2021-05-23)"
   xmlns:inkscape="http://www.inkscape.org/namespaces/inkscape"
   xmlns:sodipodi="http://sodipodi.sourceforge.net/DTD/sodipodi-0.dtd"
   xmlns="http://www.w3.org/2000/svg"
   xmlns:svg="http://www.w3.org/2000/svg"><defs
   id="defs89" /><sodipodi:namedview
   id="namedview87"
   pagecolor="#505050"
   bordercolor="#eeeeee"
   borderopacity="1"
   inkscape:pageshadow="0"
   inkscape:pageopacity="0"
   inkscape:pagecheckerboard="0"
   showgrid="false"
   inkscape:zoom="2.1666491"
   inkscape:cx="245.77123"
   inkscape:cy="246.002"
   inkscape:window-width="2160"
   inkscape:window-height="1346"
   inkscape:window-x="-11"
   inkscape:window-y="-11"
   inkscape:window-maximized="1"
   inkscape:current-layer="Layer_1" />
<g
   id="g54"
   transform="matrix(-1,0,0,1,492.00407,0)">
	<g
   id="g52">
		<path
   d="M 382.678,226.804 163.73,7.86 C 158.666,2.792 151.906,0 144.698,0 137.49,0 130.73,2.792 125.666,7.86 l -16.124,16.12 c -10.492,10.504 -10.492,27.576 0,38.064 L 293.398,245.9 109.338,429.96 c -5.064,5.068 -7.86,11.824 -7.86,19.028 0,7.212 2.796,13.968 7.86,19.04 l 16.124,16.116 c 5.068,5.068 11.824,7.86 19.032,7.86 7.208,0 13.968,-2.792 19.032,-7.86 L 382.678,265 c 5.076,-5.084 7.864,-11.872 7.848,-19.088 0.016,-7.244 -2.772,-14.028 -7.848,-19.108 z"
   id="path50" />
	</g>
</g>
<g
   id="g56">
</g>
<g
   id="g58">
</g>
<g
   id="g60">
</g>
<g
   id="g62">
</g>
<g
   id="g64">
</g>
<g
   id="g66">
</g>
<g
   id="g68">
</g>
<g
   id="g70">
</g>
<g
   id="g72">
</g>
<g
   id="g74">
</g>
<g
   id="g76">
</g>
<g
   id="g78">
</g>
<g
   id="g80">
</g>
<g
   id="g82">
</g>
<g
   id="g84">
</g>
</svg>
