<?xml version="1.0" encoding="UTF-8" standalone="no"?>
<svg
   xmlns:osb="http://www.openswatchbook.org/uri/2009/osb"
   xmlns:dc="http://purl.org/dc/elements/1.1/"
   xmlns:cc="http://creativecommons.org/ns#"
   xmlns:rdf="http://www.w3.org/1999/02/22-rdf-syntax-ns#"
   xmlns:svg="http://www.w3.org/2000/svg"
   xmlns="http://www.w3.org/2000/svg"
   xmlns:xlink="http://www.w3.org/1999/xlink"
   xmlns:sodipodi="http://sodipodi.sourceforge.net/DTD/sodipodi-0.dtd"
   xmlns:inkscape="http://www.inkscape.org/namespaces/inkscape"
   width="123mm"
   height="77mm"
   viewBox="0 0 123 77"
   version="1.1"
   id="svg8"
   inkscape:version="1.0.2-2 (e86c870879, 2021-01-15)"
   sodipodi:docname="note4.svg">
  <defs
     id="defs2">
    <linearGradient
       inkscape:collect="always"
       id="linearGradient993">
      <stop
         style="stop-color:#006099;stop-opacity:1;"
         offset="0"
         id="stop989" />
      <stop
         style="stop-color:#ffffff;stop-opacity:1"
         offset="1"
         id="stop991" />
    </linearGradient>
    <linearGradient
       inkscape:collect="always"
       id="linearGradient978">
      <stop
         style="stop-color:#ececec;stop-opacity:1"
         offset="0"
         id="stop974" />
      <stop
         style="stop-color:#ffffff;stop-opacity:1"
         offset="1"
         id="stop976" />
    </linearGradient>
    <linearGradient
       id="linearGradient872"
       osb:paint="solid">
      <stop
         style="stop-color:#000000;stop-opacity:0.2147806;"
         offset="0"
         id="stop870" />
    </linearGradient>
    <linearGradient
       inkscape:collect="always"
       xlink:href="#linearGradient978"
       id="linearGradient984"
       x1="88.892265"
       y1="11.179014"
       x2="8.3569508"
       y2="73.212448"
       gradientUnits="userSpaceOnUse"
       gradientTransform="translate(-1.5412895,-3.3885732)" />
    <linearGradient
       inkscape:collect="always"
       xlink:href="#linearGradient993"
       id="linearGradient995"
       x1="122.0366"
       y1="15.411469"
       x2="101.32413"
       y2="41.625629"
       gradientUnits="userSpaceOnUse"
       gradientTransform="translate(-2.3675457,-11.508215)" />
    <filter
       inkscape:collect="always"
       style="color-interpolation-filters:sRGB"
       id="filter1139"
       x="-0.020721382"
       width="1.0901564"
       y="-0.038439244"
       height="1.150676">
      <feGaussianBlur
         inkscape:collect="always"
         stdDeviation="1.0331159"
         id="feGaussianBlur1141" />
    </filter>
  </defs>
  <sodipodi:namedview
     id="base"
     pagecolor="#ffffff"
     bordercolor="#666666"
     borderopacity="1.0"
     inkscape:pageopacity="0.0"
     inkscape:pageshadow="2"
     inkscape:zoom="1.4"
     inkscape:cx="185.13386"
     inkscape:cy="187.9275"
     inkscape:document-units="mm"
     inkscape:current-layer="layer1"
     inkscape:document-rotation="0"
     showgrid="false"
     width="147mm"
     inkscape:window-width="1920"
     inkscape:window-height="1017"
     inkscape:window-x="1912"
     inkscape:window-y="-8"
     inkscape:window-maximized="1" />
  <metadata
     id="metadata5">
    <rdf:RDF>
      <cc:Work
         rdf:about="">
        <dc:format>image/svg+xml</dc:format>
        <dc:type
           rdf:resource="http://purl.org/dc/dcmitype/StillImage" />
        <dc:title></dc:title>
      </cc:Work>
    </rdf:RDF>
  </metadata>
  <g
     inkscape:label="Warstwa 1"
     inkscape:groupmode="layer"
     id="layer1">
    <path
       id="rect997"
       style="opacity:1;fill:#000000;fill-opacity:0.608796;stroke:#000000;stroke-width:0.0870874;stroke-miterlimit:4;stroke-dasharray:none;filter:url(#filter1139)"
       transform="matrix(0.99382993,0,0,1.0057722,-2.3460274,-11.62635)"
       d="M 5.5381298,20.770349 123.18656,20.387859 c 0.0342,-1.11e-4 0.0618,0.02756 0.0618,0.0618 l -1.40511,25.401736 0.44527,36.860735 c 4.2e-4,0.03424 -1.21214,2.995979 -1.24633,2.995132 L 61.222482,84.224977 6.287743,85.736927 c 3.729463,-0.165061 0,0 0,0 L 5.2959772,23.828494 C 16.065529,25.163751 13.74248,20.965927 13.74248,20.965927 Z"
       sodipodi:nodetypes="csscsscccccc" />
    <path
       id="rect833"
       style="opacity:1;fill:url(#linearGradient984);fill-opacity:1;stroke:#000000;stroke-width:0.1;stroke-miterlimit:4;stroke-dasharray:none"
       d="m 0.99236191,1.7519035 c 0,0 39.25037309,-0.518996 58.87647109,-0.689061 6.352164,-0.05504 21.856005,-0.37994701 35.771595,-0.15661001 13.915602,0.22333801 24.920592,0.53625801 26.135422,0.44068601 0,0 -1.18456,20.3034945 -1.48697,28.3395525 -0.61676,16.389197 -1.21798,44.938032 -1.21798,44.938032 -0.002,0.04254 -25.972631,1.437737 -37.892455,0.804614 C 65.8053,74.61257 65.804127,74.640106 38.112464,74.399986 18.794011,74.232473 4.0924508,73.079502 4.0905559,73.037003 L 0.91555591,1.8287095 c -0.0019,-0.04251 0.034255,-0.07681 0.076806,-0.07681 z"
       sodipodi:nodetypes="csscssssssc" />
    <path
       id="rect986"
       style="opacity:1;fill:url(#linearGradient995);fill-opacity:1;stroke:#000000;stroke-width:0;stroke-miterlimit:4;stroke-dasharray:none"
       d="m 101.3563,0.68376049 10e-6,2e-6 c 10.77279,0.36652701 0.004,0.122448 10.90642,0.36537101 l 9.24009,7.8322635 c 0,0 -0.16261,3.815984 -0.16423,3.865818 l -0.1687,5.218395 c -0.002,0.04984 -0.0942,0.03693 -0.13181,0.0041 L 101.36014,0.80621049 c -0.0376,-0.03277 -0.0393,-0.08738 -0.004,-0.122448 z"
       sodipodi:nodetypes="ccccsssssc" />
  </g>
</svg>
